<?xml version="1.0" encoding="utf-8"?>
<!-- Generator: Adobe Illustrator 16.0.0, SVG Export Plug-In . SVG Version: 6.00 Build 0)  -->
<!DOCTYPE svg PUBLIC "-//W3C//DTD SVG 1.1//EN" "http://www.w3.org/Graphics/SVG/1.1/DTD/svg11.dtd">
<svg version="1.1" id="Layer_1" xmlns="http://www.w3.org/2000/svg" xmlns:xlink="http://www.w3.org/1999/xlink" x="0px" y="0px"
	 width="135.082px" height="52.003px" viewBox="0 0 135.082 52.003" enable-background="new 0 0 135.082 52.003"
	 xml:space="preserve">
<g>
	<g>
		<rect x="39" fill="#A41F35" width="15" height="6"/>
		<rect x="9.75" fill="#A41F35" width="6" height="19.5"/>
		<rect x="19.5" fill="#A41F35" width="6" height="28.5"/>
		<rect fill="#A41F35" width="6" height="28.5"/>
		<rect x="39" y="9.75" fill="#A41F35" width="6" height="18.75"/>
		<rect x="29.25" fill="#A41F35" width="6" height="6"/>
		<rect x="29.25" y="9.75" fill="#8B8B8C" width="6" height="18.75"/>
	</g>
	<g>
		<path fill="#A41F35" d="M66.768,21.854h2.447l1.18,4.958h0.02l1.219-4.958h2.418v6.674h-1.574v-5.184h-0.02l-1.322,5.184h-1.471
			l-1.359-5.184h-0.018v5.184H66.77L66.768,21.854L66.768,21.854z"/>
		<path fill="#A41F35" d="M79.525,27.487c0,0.348,0.01,0.73,0.131,1.041h-1.35c-0.057-0.169-0.084-0.348-0.094-0.516h-0.018
			c-0.244,0.393-0.977,0.646-1.5,0.646c-0.957,0-1.67-0.525-1.67-1.482c0-1.199,0.967-1.62,2.561-1.844l0.533-0.076v-0.414
			c0-0.375-0.299-0.533-0.693-0.533c-0.469,0-0.693,0.169-0.77,0.665h-1.404c0.047-1.433,1.377-1.565,2.053-1.565
			c1.357,0,2.211,0.319,2.221,1.444V27.487z M78.119,26.099l-0.982,0.28c-0.365,0.104-0.703,0.244-0.703,0.647
			c0,0.394,0.328,0.562,0.684,0.562c0.572,0,1.004-0.385,1.004-1.143v-0.347H78.119z"/>
		<path fill="#A41F35" d="M84.109,25.013c-0.291-0.347-0.918-0.534-1.377-0.534c-0.365,0-0.629,0.131-0.629,0.385
			c0,0.852,2.953,0.149,2.953,2.014c0,1.312-1.162,1.781-2.25,1.781s-1.705-0.31-2.438-0.984l0.91-0.786
			c0.451,0.431,0.908,0.702,1.574,0.702c0.244,0,0.797-0.057,0.797-0.506c0-0.777-2.951-0.16-2.951-1.932
			c0-1.255,1.096-1.742,2.107-1.742c0.77,0,1.529,0.271,2.203,0.721L84.109,25.013z"/>
		<path fill="#A41F35" d="M89.322,25.013c-0.291-0.347-0.918-0.534-1.377-0.534c-0.365,0-0.629,0.131-0.629,0.385
			c0,0.852,2.953,0.149,2.953,2.014c0,1.312-1.162,1.781-2.248,1.781c-1.088,0-1.707-0.31-2.438-0.984l0.908-0.786
			c0.449,0.431,0.91,0.702,1.574,0.702c0.244,0,0.797-0.057,0.797-0.506c0-0.777-2.953-0.16-2.953-1.932
			c0-1.255,1.098-1.742,2.109-1.742c0.768,0,1.527,0.271,2.201,0.721L89.322,25.013z"/>
		<path fill="#A41F35" d="M95.509,27.487c0,0.348,0.012,0.73,0.133,1.041h-1.35c-0.059-0.169-0.084-0.348-0.096-0.516h-0.018
			c-0.244,0.393-0.977,0.646-1.5,0.646c-0.957,0-1.668-0.525-1.668-1.482c0-1.199,0.965-1.62,2.559-1.844l0.533-0.076v-0.414
			c0-0.375-0.299-0.533-0.693-0.533c-0.469,0-0.693,0.169-0.77,0.665h-1.404c0.045-1.433,1.377-1.565,2.053-1.565
			c1.359,0,2.211,0.319,2.221,1.444V27.487z M94.105,26.099l-0.984,0.28c-0.365,0.104-0.703,0.244-0.703,0.647
			c0,0.394,0.328,0.562,0.684,0.562c0.572,0,1.004-0.385,1.004-1.143V26.099L94.105,26.099z"/>
		<path fill="#A41F35" d="M100.093,25.217c-0.262-0.561-0.711-0.684-0.938-0.684c-0.834,0-1.133,0.647-1.133,1.5
			c0,0.854,0.355,1.5,1.133,1.5c0.451,0,0.807-0.168,1.041-0.729l1.049,0.534c-0.449,0.797-1.266,1.32-2.221,1.32
			c-1.49,0-2.521-0.947-2.521-2.625c0-1.648,1.098-2.625,2.477-2.625c0.947,0,1.762,0.348,2.238,1.219L100.093,25.217z"/>
		<path fill="#A41F35" d="M102.074,21.854h1.461v2.156h0.021c0.281-0.385,0.908-0.602,1.367-0.602c1.049,0,1.564,0.609,1.564,1.612
			v3.506h-1.463v-2.989c0-0.77-0.412-0.947-0.73-0.947c-0.336,0-0.76,0.216-0.76,1.145v2.793h-1.461V21.854L102.074,21.854z"/>
		<path fill="#A41F35" d="M112.216,28.528h-1.463v-0.441c-0.375,0.441-0.992,0.572-1.443,0.572c-1.182,0-1.51-0.685-1.51-1.435
			v-3.683h1.463v3.262c0,0.439,0.158,0.676,0.711,0.676c0.422,0,0.779-0.234,0.779-0.779v-3.158h1.461L112.216,28.528
			L112.216,28.528z"/>
		<path fill="#A41F35" d="M116.763,25.013c-0.291-0.347-0.92-0.534-1.379-0.534c-0.363,0-0.627,0.131-0.627,0.385
			c0,0.852,2.953,0.149,2.953,2.014c0,1.312-1.162,1.781-2.25,1.781s-1.705-0.31-2.438-0.984l0.908-0.786
			c0.451,0.431,0.91,0.702,1.576,0.702c0.242,0,0.797-0.057,0.797-0.506c0-0.777-2.953-0.16-2.953-1.932
			c0-1.255,1.098-1.742,2.109-1.742c0.768,0,1.527,0.271,2.201,0.721L116.763,25.013z"/>
		<path fill="#A41F35" d="M119.847,26.334c0.01,0.957,0.619,1.256,1.088,1.256c0.543,0,0.797-0.28,1.219-0.881l1.098,0.572
			c-0.508,0.938-1.305,1.377-2.418,1.377c-1.549,0-2.447-1.068-2.447-2.475c0-1.762,0.928-2.773,2.447-2.773
			c1.816,0,2.436,1.387,2.445,2.924H119.847z M121.816,25.434c-0.047-0.73-0.572-0.955-0.994-0.955s-0.926,0.299-0.992,0.955
			H121.816z"/>
		<path fill="#A41F35" d="M126.765,24.534h-0.871v2.447c0,0.395,0.197,0.498,0.459,0.498c0.16,0,0.365-0.02,0.441-0.029v1.153
			c-0.189,0.019-0.619,0.056-0.939,0.056c-1.246,0-1.424-0.777-1.424-1.5v-2.625h-0.713v-0.898h0.713v-1.444h1.461v1.444h0.873
			V24.534L126.765,24.534z"/>
		<path fill="#A41F35" d="M130.066,24.534h-0.871v2.447c0,0.395,0.197,0.498,0.459,0.498c0.158,0,0.365-0.02,0.439-0.029v1.153
			c-0.188,0.019-0.619,0.056-0.938,0.056c-1.246,0-1.424-0.777-1.424-1.5v-2.625h-0.713v-0.898h0.713v-1.444h1.461v1.444h0.871
			v0.898H130.066z"/>
		<path fill="#A41F35" d="M134.134,25.013c-0.291-0.347-0.918-0.534-1.379-0.534c-0.363,0-0.627,0.131-0.627,0.385
			c0,0.852,2.951,0.149,2.951,2.014c0,1.312-1.16,1.781-2.248,1.781s-1.705-0.31-2.438-0.984l0.91-0.786
			c0.449,0.431,0.908,0.702,1.574,0.702c0.242,0,0.797-0.057,0.797-0.506c0-0.777-2.953-0.16-2.953-1.932
			c0-1.255,1.098-1.742,2.109-1.742c0.768,0,1.527,0.271,2.201,0.721L134.134,25.013z"/>
		<path fill="#A41F35" d="M66.805,32.766h1.669v6.673h-1.669V32.766z"/>
		<path fill="#A41F35" d="M69.777,34.454h1.461v0.439c0.375-0.439,0.994-0.57,1.443-0.57c1.182,0,1.51,0.684,1.51,1.434v3.684H72.73
			v-3.121c0-0.486-0.15-0.814-0.713-0.814c-0.59,0-0.777,0.385-0.777,0.834v3.103h-1.463V34.454L69.777,34.454z"/>
		<path fill="#A41F35" d="M78.738,35.924c-0.291-0.346-0.92-0.532-1.379-0.532c-0.365,0-0.627,0.131-0.627,0.385
			c0,0.853,2.953,0.147,2.953,2.017c0,1.312-1.162,1.779-2.25,1.779s-1.705-0.31-2.438-0.984l0.908-0.787
			c0.451,0.432,0.91,0.703,1.576,0.703c0.242,0,0.795-0.055,0.795-0.506c0-0.777-2.951-0.16-2.951-1.932
			c0-1.255,1.096-1.742,2.107-1.742c0.77,0,1.529,0.271,2.205,0.723L78.738,35.924z"/>
		<path fill="#A41F35" d="M83.181,35.448H82.31v2.446c0,0.394,0.197,0.497,0.459,0.497c0.16,0,0.365-0.02,0.441-0.027v1.152
			c-0.188,0.018-0.619,0.057-0.938,0.057c-1.248,0-1.426-0.779-1.426-1.5v-2.625h-0.711v-0.9h0.711v-1.442h1.463v1.442h0.871V35.448
			L83.181,35.448z"/>
		<path fill="#A41F35" d="M84.017,33.891v-1.125h1.461v1.125H84.017z M85.48,34.454v4.985h-1.463v-4.985H85.48z"/>
		<path fill="#A41F35" d="M89.257,35.448h-0.871v2.446c0,0.394,0.197,0.497,0.457,0.497c0.16,0,0.367-0.02,0.439-0.027v1.152
			c-0.186,0.018-0.617,0.057-0.936,0.057c-1.246,0-1.426-0.779-1.426-1.5v-2.625H86.21v-0.9h0.711v-1.442h1.463v1.442h0.871v0.9
			H89.257z"/>
		<path fill="#A41F35" d="M94.505,39.44h-1.461V39c-0.375,0.439-0.992,0.572-1.443,0.572c-1.182,0-1.51-0.686-1.51-1.436v-3.684
			h1.463v3.262c0,0.441,0.158,0.676,0.711,0.676c0.422,0,0.779-0.234,0.779-0.778v-3.159h1.461V39.44L94.505,39.44z"/>
		<path fill="#A41F35" d="M98.285,35.448h-0.871v2.446c0,0.394,0.197,0.497,0.459,0.497c0.158,0,0.365-0.02,0.439-0.027v1.152
			c-0.188,0.018-0.619,0.057-0.938,0.057c-1.246,0-1.424-0.779-1.424-1.5v-2.625h-0.713v-0.9h0.713v-1.442h1.461v1.442h0.871v0.9
			H98.285z"/>
		<path fill="#A41F35" d="M100.226,37.247c0.01,0.957,0.617,1.256,1.086,1.256c0.545,0,0.797-0.28,1.219-0.881l1.098,0.571
			c-0.508,0.937-1.303,1.38-2.418,1.38c-1.549,0-2.447-1.07-2.447-2.477c0-1.762,0.928-2.773,2.447-2.773
			c1.816,0,2.438,1.389,2.445,2.924H100.226z M102.193,36.346c-0.045-0.73-0.57-0.955-0.992-0.955s-0.928,0.299-0.992,0.955H102.193
			z"/>
		<path fill="#A41F35" d="M112.234,36.948c0,1.678-1.096,2.625-2.652,2.625s-2.65-0.947-2.65-2.625c0-1.679,1.096-2.625,2.65-2.625
			C111.138,34.323,112.234,35.268,112.234,36.948z M108.39,36.948c0,0.854,0.355,1.5,1.189,1.5c0.836,0,1.191-0.646,1.191-1.557
			c0-0.797-0.355-1.443-1.191-1.443C108.746,35.448,108.39,36.092,108.39,36.948z"/>
		<path fill="#A41F35" d="M113.378,35.448h-0.77v-0.9h0.77v-0.485c0-0.562,0.178-1.369,1.424-1.369c0.318,0,0.77,0.048,0.957,0.113
			v1.067h-0.414c-0.252,0-0.506,0.076-0.506,0.356v0.317h0.898v0.9h-0.898v3.991h-1.463L113.378,35.448L113.378,35.448z"/>
		<path fill="#A41F35" d="M65.07,43.679h5.156v1.293h-1.744v5.38h-1.667v-5.38H65.07V43.679z"/>
		<path fill="#A41F35" d="M71.408,48.159c0.012,0.957,0.619,1.258,1.086,1.258c0.547,0,0.799-0.281,1.221-0.883l1.096,0.572
			c-0.506,0.938-1.301,1.379-2.418,1.379c-1.547,0-2.445-1.068-2.445-2.475c0-1.764,0.928-2.774,2.445-2.774
			c1.818,0,2.438,1.388,2.447,2.923H71.408z M73.375,47.26c-0.047-0.731-0.57-0.956-0.992-0.956s-0.928,0.3-0.994,0.956H73.375z"/>
		<path fill="#A41F35" d="M79.093,47.045c-0.262-0.562-0.711-0.686-0.938-0.686c-0.834,0-1.133,0.646-1.133,1.5s0.355,1.5,1.133,1.5
			c0.451,0,0.807-0.17,1.041-0.732l1.049,0.535c-0.449,0.797-1.266,1.322-2.221,1.322c-1.49,0-2.521-0.947-2.521-2.625
			c0-1.648,1.098-2.624,2.477-2.624c0.947,0,1.762,0.347,2.238,1.218L79.093,47.045z"/>
		<path fill="#A41F35" d="M81.074,43.679h1.461v2.155h0.021c0.281-0.385,0.908-0.601,1.367-0.601c1.049,0,1.564,0.608,1.564,1.611
			v3.505h-1.463v-2.989c0-0.769-0.412-0.944-0.73-0.944c-0.336,0-0.76,0.213-0.76,1.143v2.792h-1.461V43.679L81.074,43.679z"/>
		<path fill="#A41F35" d="M86.8,45.366h1.463v0.441c0.375-0.441,0.992-0.572,1.443-0.572c1.182,0,1.51,0.686,1.51,1.436v3.682
			h-1.463v-3.12c0-0.485-0.15-0.813-0.713-0.813c-0.59,0-0.777,0.383-0.777,0.832v3.103h-1.461L86.8,45.366L86.8,45.366z"/>
		<path fill="#A41F35" d="M97.478,47.859c0,1.677-1.098,2.625-2.652,2.625s-2.652-0.948-2.652-2.625s1.098-2.624,2.652-2.624
			S97.478,46.182,97.478,47.859z M93.636,47.859c0,0.854,0.355,1.5,1.189,1.5c0.832,0,1.189-0.646,1.189-1.556
			c0-0.797-0.357-1.443-1.189-1.443C93.992,46.36,93.636,47.006,93.636,47.859z"/>
		<path fill="#A41F35" d="M98.435,50.353V43.68h1.463v6.673H98.435z"/>
		<path fill="#A41F35" d="M106.158,47.859c0,1.677-1.096,2.625-2.65,2.625c-1.557,0-2.652-0.948-2.652-2.625
			s1.098-2.624,2.652-2.624S106.158,46.182,106.158,47.859z M102.316,47.859c0,0.854,0.357,1.5,1.189,1.5
			c0.836,0,1.191-0.646,1.191-1.556c0-0.797-0.355-1.443-1.191-1.443C102.671,46.36,102.316,47.006,102.316,47.859z"/>
		<path fill="#A41F35" d="M111.494,45.366v4.996c0,1.583-1.621,1.641-2.391,1.641c-1.5,0-2.287-0.506-2.297-1.725h1.518
			c0.012,0.543,0.318,0.77,0.846,0.77c0.561,0,0.908-0.112,0.908-0.844v-0.574c-0.318,0.312-0.938,0.414-1.379,0.414
			c-1.395,0-1.938-1.125-1.938-2.381c0-1.22,0.637-2.428,1.957-2.428c0.545,0,1.014,0.122,1.424,0.525v-0.395H111.494
			L111.494,45.366z M109.14,46.303c-0.459,0-0.918,0.262-0.918,1.34c0,0.602,0.131,1.331,0.898,1.331
			c0.938,0,0.967-0.815,0.967-1.331C110.087,46.631,109.591,46.303,109.14,46.303z"/>
		<path fill="#A41F35" d="M112.572,50.859c0.17,0.009,0.338,0.019,0.498,0.019c0.439,0,0.674-0.084,0.674-0.364
			c0-0.076-0.01-0.161-0.131-0.536l-1.463-4.609h1.537l0.807,3.805h0.02l0.814-3.805h1.584l-1.754,5.313
			c-0.252,0.76-0.57,1.321-1.434,1.321h-1.152V50.859L112.572,50.859z"/>
	</g>
</g>
</svg>
